<?xml version="1.0" encoding="UTF-8" ?>
<!DOCTYPE svg PUBLIC "-//W3C//DTD SVG 1.1//EN" "http://www.w3.org/Graphics/SVG/1.1/DTD/svg11.dtd">
<svg width="300pt" height="300pt" viewBox="0 0 300 300" version="1.1" xmlns="http://www.w3.org/2000/svg">
<path fill="#371312" d=" M 130.88 74.86 C 132.82 72.77 135.99 72.86 138.52 73.60 C 141.65 74.94 142.58 78.48 143.66 81.39 C 156.78 76.61 171.08 76.07 184.90 76.69 C 194.29 77.60 204.42 79.65 211.40 86.48 C 214.73 89.53 215.72 94.06 217.14 98.15 C 219.26 103.53 219.84 109.38 220.28 115.11 C 220.34 117.30 217.92 118.31 216.03 118.12 C 208.77 118.40 200.23 117.89 194.69 123.49 C 189.04 129.57 190.15 138.37 190.23 145.98 C 191.19 159.01 194.97 171.60 197.84 184.29 C 200.16 193.39 202.64 202.55 203.28 211.95 C 202.93 214.68 204.14 217.16 205.09 219.63 C 215.66 218.47 225.89 224.95 231.30 233.75 C 237.26 243.33 235.07 257.61 225.32 263.87 C 226.85 276.83 232.12 289.10 239.16 300.00 L 236.21 300.00 C 234.99 298.17 233.90 296.27 232.80 294.38 C 229.07 294.18 225.26 294.03 221.63 295.06 C 220.34 295.36 219.07 295.67 217.79 295.98 C 218.65 295.38 219.52 294.80 220.40 294.23 C 224.05 292.74 227.99 292.20 231.91 292.35 C 229.58 287.68 228.30 282.53 225.89 277.94 C 222.31 276.10 218.06 276.44 214.33 277.62 C 212.74 278.36 211.19 279.19 209.64 280.00 C 210.06 287.79 215.26 293.83 219.40 300.00 L 216.29 300.00 C 213.02 295.66 211.21 290.44 209.30 285.40 C 210.08 290.24 209.75 295.14 209.52 300.00 L 207.71 300.00 C 207.11 290.99 207.52 281.97 207.15 272.95 C 206.60 260.62 206.35 248.28 206.22 235.94 C 206.14 233.36 205.67 230.83 205.21 228.31 C 203.18 233.82 199.85 238.88 194.94 242.23 C 187.45 247.22 178.83 250.16 170.18 252.40 C 155.72 255.44 140.73 256.36 126.08 254.13 C 118.10 253.28 110.23 250.87 103.42 246.58 C 100.33 244.63 97.96 241.81 96.16 238.68 C 97.66 259.07 100.97 279.52 99.30 300.00 L 97.81 300.00 C 95.06 295.94 89.82 295.03 85.24 295.39 C 84.54 295.43 83.14 295.52 82.44 295.56 C 81.70 297.02 81.04 298.52 80.32 300.00 L 77.84 300.00 C 83.27 289.77 84.87 277.53 82.40 266.25 C 78.23 263.84 74.80 259.84 73.95 255.01 C 72.74 247.90 74.53 239.99 79.83 234.86 C 83.62 230.43 89.51 228.55 95.17 228.23 C 97.34 221.85 101.85 216.16 107.76 212.89 C 102.79 193.32 95.57 174.19 93.10 154.06 C 89.88 153.28 86.33 152.48 84.06 149.86 C 81.46 146.97 81.35 142.73 82.01 139.11 C 83.58 133.96 88.30 130.71 93.09 128.84 C 95.79 112.50 106.49 98.00 120.99 90.13 C 121.59 86.41 125.91 85.75 128.74 84.34 C 128.85 81.15 128.35 77.29 130.88 74.86 Z" />
<path fill="#ffaaad" d=" M 129.45 84.46 C 129.30 80.75 130.90 76.84 134.36 75.14 C 135.13 79.07 133.13 82.90 129.45 84.46 Z" />
<path fill="#ec1c24" d=" M 134.36 75.14 C 138.50 74.50 141.04 78.52 141.58 82.08 C 142.25 84.72 139.05 86.15 136.94 86.40 C 134.35 86.61 130.94 87.13 129.45 84.46 C 133.13 82.90 135.13 79.07 134.36 75.14 Z" />
<path fill="#26a9e0" d=" M 148.44 82.80 C 161.49 80.49 174.92 78.31 188.15 80.46 C 197.20 81.32 206.58 85.04 212.16 92.49 C 202.26 91.79 191.46 94.08 184.48 101.61 C 176.34 110.58 175.10 123.43 175.40 135.01 C 175.39 162.79 184.51 189.36 190.66 216.17 C 174.32 221.87 157.23 225.50 139.94 226.38 C 132.10 226.67 124.12 225.95 116.75 223.13 C 114.21 221.64 112.09 219.55 109.59 218.00 C 109.27 213.58 107.51 209.45 106.73 205.10 L 106.79 204.97 C 108.04 202.49 109.13 199.83 109.06 197.01 C 108.76 188.31 106.85 179.79 104.64 171.41 C 103.12 165.84 102.72 160.07 101.58 154.43 C 119.43 154.45 137.37 155.30 155.14 153.12 C 159.51 152.16 164.33 150.97 167.38 147.45 C 169.25 143.30 171.72 138.23 169.20 133.81 C 166.87 128.85 161.29 126.93 156.40 125.53 C 146.74 123.41 136.75 122.65 126.88 123.26 C 118.22 124.02 109.42 124.12 100.94 126.22 C 102.05 117.84 106.75 110.49 111.98 104.06 C 114.77 100.57 118.48 98.05 122.15 95.59 C 131.69 100.71 144.31 99.90 152.78 92.99 C 152.78 89.16 152.60 84.48 148.44 82.80 Z" />
<path fill="#27aae2" d=" M 141.18 86.93 C 143.45 85.15 146.02 83.80 148.90 83.36 C 148.81 84.10 148.64 85.58 148.55 86.32 C 147.28 87.15 146.01 87.98 144.74 88.81 L 144.51 88.69 C 143.40 88.10 142.29 87.51 141.18 86.93 Z" />
<path fill="#68c3ea" d=" M 123.72 87.69 C 125.72 87.08 127.75 86.55 129.82 86.16 C 133.25 88.46 137.47 88.72 141.18 86.93 C 142.29 87.51 143.40 88.10 144.51 88.69 C 139.21 90.89 133.21 91.71 127.55 90.64 C 125.76 90.50 124.62 89.08 123.72 87.69 Z" />
<path fill="#1b769c" d=" M 144.36 90.21 C 146.57 89.27 148.67 88.02 150.06 86.00 C 151.70 87.60 151.60 89.99 151.94 92.08 C 149.54 92.93 147.17 93.86 144.86 94.93 C 144.69 93.40 144.54 91.86 144.37 90.33 L 144.36 90.21 Z" />
<path fill="#26a8df" d=" M 122.65 91.24 C 123.12 90.61 123.60 89.98 124.09 89.37 C 124.20 91.41 126.40 91.30 127.77 91.85 C 133.33 93.35 138.90 91.15 144.37 90.33 C 144.54 91.86 144.69 93.40 144.86 94.93 C 138.20 98.27 130.15 98.72 123.46 95.22 C 123.40 93.85 123.13 92.52 122.65 91.24 Z" />
<path fill="#93d4f0" d=" M 95.15 127.78 C 98.37 112.86 108.64 99.88 122.12 92.87 C 122.13 93.55 122.14 94.91 122.15 95.59 C 118.48 98.05 114.77 100.57 111.98 104.06 C 106.75 110.49 102.05 117.84 100.94 126.22 C 99.01 126.75 97.08 127.27 95.15 127.78 Z" />
<path fill="#1b769c" d=" M 190.03 97.92 C 196.93 93.47 205.60 92.37 213.58 93.43 C 217.79 100.63 217.45 109.30 219.26 117.23 C 211.64 115.33 203.10 114.99 196.17 119.23 C 191.56 122.04 189.53 127.40 188.63 132.47 C 186.56 143.72 189.57 155.00 190.78 166.16 C 193.89 181.15 196.22 196.43 201.51 210.85 C 198.08 212.65 194.83 214.98 190.95 215.69 C 186.11 192.64 178.42 170.00 176.87 146.38 C 175.33 135.57 175.20 124.33 178.36 113.79 C 180.60 107.58 184.10 101.28 190.03 97.92 Z" />
<path fill="#30272d" d=" M 210.27 102.43 C 211.79 101.26 213.14 103.95 211.77 104.90 C 210.23 106.17 208.82 103.37 210.27 102.43 Z" />
<path fill="#68c4ea" d=" M 102.73 127.68 C 116.91 125.03 131.45 124.06 145.84 125.21 C 152.40 126.24 159.67 126.65 165.03 131.05 C 169.91 134.85 169.77 142.90 165.40 147.06 C 165.58 144.26 166.08 141.32 165.21 138.61 C 161.06 131.63 152.39 129.97 145.08 128.41 C 131.07 126.20 116.82 126.60 102.73 127.68 Z" />
<path fill="#26a9e0" d=" M 115.20 129.29 C 125.46 128.68 135.78 128.75 146.00 130.02 C 151.54 131.25 157.70 131.90 161.96 136.07 C 165.27 139.13 165.77 144.63 163.41 148.37 C 157.34 151.20 150.55 151.75 143.94 151.80 C 132.64 152.52 121.32 152.34 110.01 152.28 C 102.27 151.73 93.89 153.08 86.82 149.13 C 83.07 146.98 82.54 141.82 84.36 138.22 C 86.58 133.85 91.13 130.61 96.09 130.45 C 102.45 130.02 108.81 129.48 115.20 129.29 Z" />
<path fill="#461917" d=" M 126.63 131.96 C 133.10 131.56 139.62 132.06 146.06 132.77 C 150.95 133.57 156.02 135.59 158.70 140.01 C 159.82 142.87 157.47 145.06 154.89 145.66 C 138.69 150.05 121.67 149.47 105.06 148.55 C 100.53 148.55 95.43 148.31 91.88 145.12 C 89.80 143.58 89.52 140.17 91.31 138.32 C 94.19 134.75 98.83 133.46 103.14 132.64 C 110.94 131.74 118.82 132.72 126.63 131.96 Z" />
<path fill="#fef100" d=" M 110.65 135.25 C 114.05 134.81 114.86 138.64 114.34 141.24 C 113.23 141.76 112.17 143.15 110.86 142.34 C 108.72 140.47 109.42 137.40 110.65 135.25 Z" />
<path fill="#fef200" d=" M 136.74 135.54 C 141.82 133.47 142.14 144.38 136.83 142.30 C 136.46 141.21 136.09 140.11 135.70 139.03 C 136.06 137.86 136.40 136.70 136.74 135.54 Z" />
<path fill="#155d7a" d=" M 91.38 143.48 C 90.67 140.45 93.14 138.06 95.39 136.48 C 94.88 138.85 93.65 142.10 96.40 143.57 C 103.22 146.33 110.82 146.26 118.07 146.17 C 130.17 145.27 142.35 145.20 154.38 143.46 C 154.47 143.83 154.66 144.58 154.76 144.96 C 151.98 145.95 149.07 146.56 146.13 146.71 C 139.08 147.09 132.03 147.67 124.97 147.86 C 120.04 147.95 115.05 149.08 110.16 147.89 C 103.91 146.76 96.35 148.29 91.38 143.48 Z" />
<path fill="#93d4f0" d=" M 95.06 154.24 C 97.23 154.34 99.40 154.40 101.58 154.43 C 102.72 160.07 103.12 165.84 104.64 171.41 C 106.85 179.79 108.76 188.31 109.06 197.01 C 109.13 199.83 108.04 202.49 106.79 204.97 C 103.82 195.38 101.42 185.62 98.72 175.94 C 97.35 168.73 94.99 161.66 95.06 154.24 Z" />
<path fill="#461917" d=" M 149.02 177.21 C 151.07 177.20 153.13 177.19 155.19 177.17 C 155.49 184.22 156.93 191.15 157.43 198.19 C 155.59 198.81 153.70 199.30 151.79 199.63 C 149.33 192.43 149.26 184.73 149.02 177.21 Z" />
<path fill="#461917" d=" M 140.67 178.75 C 142.11 177.08 144.58 177.90 146.50 177.51 C 147.48 184.73 148.76 191.91 149.34 199.18 C 147.45 199.56 145.57 199.96 143.70 200.37 C 141.01 193.48 141.51 185.97 140.67 178.75 Z" />
<path fill="#461917" d=" M 122.21 179.52 C 124.14 179.42 126.08 179.31 128.02 179.20 C 128.53 186.56 130.47 193.78 130.42 201.19 C 128.58 201.47 126.76 201.80 124.94 202.18 C 122.54 194.88 122.32 187.14 122.21 179.52 Z" />
<path fill="#461a18" d=" M 131.16 178.80 C 133.12 178.60 135.09 178.46 137.05 178.35 C 137.48 185.64 139.52 192.79 139.41 200.13 C 137.56 200.57 135.71 201.00 133.85 201.38 C 131.49 194.11 131.46 186.36 131.16 178.80 Z" />
<path fill="#233340" d=" M 141.98 178.73 C 142.41 178.91 143.25 179.27 143.67 179.45 C 144.04 184.30 144.48 189.20 144.31 194.07 C 144.07 194.36 143.59 194.94 143.35 195.23 C 142.89 189.74 141.52 184.23 141.98 178.73 Z" />
<path fill="#213442" d=" M 149.71 178.52 C 152.01 177.90 151.85 180.52 152.03 181.88 C 152.21 186.63 152.27 191.40 153.38 196.05 C 153.10 196.30 152.52 196.82 152.23 197.08 C 150.56 191.02 150.69 184.69 149.71 178.52 Z" />
<path fill="#1f3746" d=" M 123.56 186.95 C 123.74 184.92 122.34 181.89 124.73 180.73 C 125.38 185.30 125.54 189.94 125.23 194.55 C 123.30 192.56 124.03 189.46 123.56 186.95 Z" />
<path fill="#183c4d" d=" M 132.74 181.29 L 133.63 180.46 C 133.82 184.79 135.69 189.98 133.24 193.84 C 132.68 189.70 132.24 185.45 132.74 181.29 Z" />
<path fill="#322227" d=" M 195.40 206.29 C 196.93 205.12 198.21 207.93 196.94 208.90 C 195.40 210.06 194.15 207.26 195.40 206.29 Z" />
<path fill="#371312" d=" M 181.46 212.37 C 182.95 212.00 184.06 212.47 184.58 214.00 C 184.12 214.35 183.20 215.06 182.74 215.42 C 182.47 215.19 181.92 214.72 181.65 214.49 C 181.60 213.96 181.51 212.90 181.46 212.37 Z" />
<path fill="#68c3e9" d=" M 97.74 224.96 C 100.39 220.70 104.06 217.10 108.16 214.24 C 108.47 215.44 108.77 216.65 109.07 217.86 C 104.14 221.73 100.83 228.14 102.81 234.44 C 102.97 234.83 103.28 235.60 103.44 235.99 C 108.30 243.03 116.87 246.21 124.90 247.97 C 138.55 250.52 152.53 249.18 166.15 247.10 C 175.82 245.10 186.08 242.66 193.32 235.45 C 193.93 237.08 194.55 238.71 195.17 240.34 C 182.10 249.67 165.68 252.36 149.98 253.18 C 135.73 253.75 120.84 253.41 107.63 247.39 C 103.48 245.19 99.20 242.29 97.32 237.79 C 95.23 233.70 97.33 229.19 97.74 224.96 Z" />
<path fill="#371312" d=" M 113.32 217.65 C 113.08 215.82 113.90 214.94 115.77 215.22 C 115.57 216.41 115.42 217.61 115.19 218.80 C 114.73 218.51 113.79 217.93 113.32 217.65 Z" />
<path fill="#26a9df" d=" M 196.34 216.58 C 198.30 215.81 200.28 215.07 202.25 214.32 C 202.32 217.37 204.44 219.92 204.36 222.99 C 205.09 230.06 200.36 236.12 195.17 240.34 C 194.55 238.71 193.93 237.08 193.32 235.45 C 194.49 234.07 195.51 232.57 196.50 231.07 C 196.62 230.85 196.86 230.41 196.97 230.20 C 198.44 225.83 198.26 220.79 196.34 216.58 Z" />
<path fill="#371312" d=" M 164.25 216.37 C 164.85 216.39 166.06 216.44 166.67 216.46 C 166.58 217.40 166.50 218.35 166.42 219.30 C 165.95 219.31 165.03 219.34 164.57 219.35 C 164.46 218.35 164.35 217.36 164.25 216.37 Z" />
<path fill="#155d7b" d=" M 167.79 224.60 C 177.15 222.92 186.07 219.41 195.21 217.02 C 198.45 220.28 197.28 225.94 196.97 230.20 C 196.86 230.41 196.62 230.85 196.50 231.07 C 192.96 233.71 190.22 237.39 186.13 239.29 C 169.97 247.86 150.98 249.17 133.05 247.72 C 122.34 246.98 111.03 244.07 103.44 235.99 C 103.28 235.60 102.97 234.83 102.81 234.44 C 102.99 231.93 103.16 229.41 103.71 226.95 C 105.06 223.99 107.29 221.57 109.30 219.06 C 114.47 225.69 123.24 227.06 131.04 228.21 C 139.06 228.15 147.09 228.37 155.10 228.44 C 158.74 225.63 163.50 225.64 167.79 224.60 Z" />
<path fill="#371312" d=" M 128.43 222.47 C 128.36 220.96 128.75 219.47 130.46 219.26 C 130.59 220.44 130.72 221.62 130.84 222.80 C 130.24 222.72 129.03 222.55 128.43 222.47 Z" />
<path fill="#371312" d=" M 146.22 219.37 C 146.78 219.36 147.90 219.34 148.46 219.33 C 148.10 220.58 148.55 222.44 146.75 222.81 C 146.46 221.72 145.12 220.43 146.22 219.37 Z" />
<path fill="#1b769c" d=" M 205.28 221.39 C 211.19 221.49 217.37 223.01 222.24 226.45 C 224.85 232.70 226.92 239.75 224.49 246.41 C 222.77 253.54 216.00 259.11 208.52 258.50 C 207.64 246.12 207.71 233.59 205.28 221.39 Z" />
<path fill="#155d7b" d=" M 222.24 226.45 C 228.67 230.90 233.13 238.18 233.46 246.06 C 233.18 252.22 230.24 258.56 224.85 261.85 C 220.30 265.17 214.42 265.16 209.04 265.11 C 208.83 262.91 208.64 260.71 208.52 258.50 C 216.00 259.11 222.77 253.54 224.49 246.41 C 226.92 239.75 224.85 232.70 222.24 226.45 Z" />
<path fill="#1b769c" d=" M 88.10 231.41 C 90.20 230.52 92.47 230.08 94.63 229.36 C 94.55 235.23 93.79 241.12 94.60 246.98 C 95.68 253.75 95.79 260.61 96.19 267.45 C 91.25 265.63 85.84 265.08 81.37 262.07 L 81.29 261.56 C 80.83 256.98 78.40 252.68 79.14 247.97 C 79.78 241.42 84.92 236.80 88.10 231.41 Z" />
<path fill="#1b769c" d=" M 194.94 242.23 C 199.85 238.88 203.18 233.82 205.21 228.31 C 205.67 230.83 206.14 233.36 206.22 235.94 C 206.35 248.28 206.60 260.62 207.15 272.95 C 207.52 281.97 207.11 290.99 207.71 300.00 L 199.17 300.00 C 200.45 283.29 198.13 266.57 196.90 249.91 C 196.67 249.96 196.22 250.04 195.99 250.08 C 195.89 249.91 195.69 249.55 195.59 249.38 C 195.57 246.97 195.42 244.58 194.94 242.23 Z" />
<path fill="#371312" d=" M 186.13 239.29 C 190.22 237.39 192.96 233.71 196.50 231.07 C 195.51 232.57 194.49 234.07 193.32 235.45 C 186.08 242.66 175.82 245.10 166.15 247.10 C 152.53 249.18 138.55 250.52 124.90 247.97 C 116.87 246.21 108.30 243.03 103.44 235.99 C 111.03 244.07 122.34 246.98 133.05 247.72 C 150.98 249.17 169.97 247.86 186.13 239.29 Z" />
<path fill="#68c4ea" d=" M 74.84 249.02 C 75.31 241.23 80.93 234.26 88.10 231.41 C 84.92 236.80 79.78 241.42 79.14 247.97 C 78.40 252.68 80.83 256.98 81.29 261.56 C 76.92 259.08 75.20 253.75 74.84 249.02 Z" />
<path fill="#26a9e0" d=" M 96.16 238.68 C 97.96 241.81 100.33 244.63 103.42 246.58 C 110.23 250.87 118.10 253.28 126.08 254.13 C 140.73 256.36 155.72 255.44 170.18 252.40 C 178.83 250.16 187.45 247.22 194.94 242.23 C 195.42 244.58 195.57 246.97 195.59 249.38 C 195.17 248.71 194.33 247.38 193.91 246.71 C 192.79 248.14 192.35 249.93 194.20 251.01 C 194.65 250.78 195.54 250.32 195.99 250.08 C 196.22 250.04 196.67 249.96 196.90 249.91 C 198.13 266.57 200.45 283.29 199.17 300.00 L 114.97 300.00 C 113.42 291.96 115.73 282.51 109.95 275.80 C 108.38 276.47 106.73 277.32 106.26 279.11 C 103.37 285.73 104.76 293.08 105.46 300.00 L 99.30 300.00 C 100.97 279.52 97.66 259.07 96.16 238.68 Z" />
<path fill="#31252c" d=" M 202.06 240.10 C 203.80 239.91 203.83 243.29 202.03 242.99 C 200.82 242.57 200.82 240.48 202.06 240.10 Z" />
<path fill="#371312" d=" M 194.20 251.01 C 192.35 249.93 192.79 248.14 193.91 246.71 C 194.33 247.38 195.17 248.71 195.59 249.38 C 195.69 249.55 195.89 249.91 195.99 250.08 C 195.54 250.32 194.65 250.78 194.20 251.01 Z" />
<path fill="#371312" d=" M 102.40 252.66 C 103.07 252.53 104.42 252.25 105.09 252.12 C 105.14 252.90 105.19 253.68 105.24 254.47 C 104.90 254.79 104.20 255.44 103.85 255.76 C 103.26 254.78 102.75 253.75 102.40 252.66 Z" />
<path fill="#371312" d=" M 179.43 254.42 C 179.94 254.43 180.95 254.44 181.46 254.44 C 181.52 255.54 181.57 256.63 181.63 257.73 C 179.32 258.18 178.99 256.24 179.43 254.42 Z" />
<path fill="#371312" d=" M 114.31 257.35 C 114.89 257.35 116.05 257.34 116.63 257.34 C 116.55 258.34 116.46 259.34 116.38 260.35 C 115.96 260.34 115.12 260.31 114.71 260.29 C 114.57 259.31 114.44 258.33 114.31 257.35 Z" />
<path fill="#371312" d=" M 128.53 259.68 C 129.04 259.64 130.05 259.55 130.55 259.51 C 130.63 260.55 130.70 261.59 130.77 262.63 C 130.18 262.62 128.99 262.59 128.40 262.58 C 128.44 261.61 128.48 260.64 128.53 259.68 Z" />
<path fill="#371312" d=" M 163.26 259.38 C 163.87 259.36 165.08 259.34 165.68 259.33 C 165.58 260.32 165.48 261.31 165.38 262.31 C 164.92 262.34 163.98 262.42 163.52 262.45 C 163.40 261.43 163.32 260.40 163.26 259.38 Z" />
<path fill="#371312" d=" M 145.40 260.08 C 147.50 260.21 147.64 262.15 147.14 263.79 C 144.55 264.39 145.02 261.68 145.40 260.08 Z" />
<path fill="#93d4f0" d=" M 105.15 263.13 C 108.37 261.16 112.99 263.88 111.74 267.79 C 110.13 273.16 100.24 266.43 105.15 263.13 Z" />
<path fill="#404041" d=" M 209.23 269.44 C 214.48 268.85 219.51 267.21 224.30 265.01 C 224.31 266.35 224.32 267.69 224.33 269.04 C 221.04 270.25 217.63 271.11 214.41 272.49 C 214.01 273.78 213.75 275.10 213.64 276.46 L 213.57 277.02 C 212.27 277.50 210.96 277.96 209.66 278.44 C 209.41 275.44 209.25 272.44 209.23 269.44 Z" />
<path fill="#6d6e70" d=" M 84.14 267.25 C 86.45 268.16 88.74 269.09 91.06 269.99 C 91.76 273.39 92.44 276.79 93.00 280.21 C 90.40 280.26 87.80 280.26 85.19 280.15 C 85.80 275.80 84.92 271.51 84.14 267.25 Z" />
<path fill="#58595b" d=" M 214.41 272.49 C 217.63 271.11 221.04 270.25 224.33 269.04 C 224.69 271.46 225.21 273.85 225.77 276.23 C 221.74 275.26 217.66 275.68 213.64 276.46 C 213.75 275.10 214.01 273.78 214.41 272.49 Z" />
<path fill="#58595b" d=" M 91.06 269.99 C 92.84 270.54 94.61 271.14 96.37 271.76 C 96.58 275.07 96.66 278.39 96.51 281.71 C 95.34 281.21 94.17 280.71 93.00 280.21 C 92.44 276.79 91.76 273.39 91.06 269.99 Z" />
<path fill="#93d4f0" d=" M 106.26 279.11 C 106.73 277.32 108.38 276.47 109.95 275.80 C 115.73 282.51 113.42 291.96 114.97 300.00 L 105.46 300.00 C 104.76 293.08 103.37 285.73 106.26 279.11 Z" />
<path fill="#58595b" d=" M 214.33 277.62 C 218.06 276.44 222.31 276.10 225.89 277.94 C 228.30 282.53 229.58 287.68 231.91 292.35 C 227.99 292.20 224.05 292.74 220.40 294.23 C 218.39 288.69 215.72 283.38 214.33 277.62 Z" />
<path fill="#404041" d=" M 209.64 280.00 C 211.19 279.19 212.74 278.36 214.33 277.62 C 215.72 283.38 218.39 288.69 220.40 294.23 C 219.52 294.80 218.65 295.38 217.79 295.98 C 219.07 295.67 220.34 295.36 221.63 295.06 C 222.40 296.71 223.16 298.38 224.03 300.00 L 219.40 300.00 C 215.26 293.83 210.06 287.79 209.64 280.00 Z" />
<path fill="#6d6e70" d=" M 85.15 281.09 C 87.88 281.11 90.62 281.22 93.35 281.41 C 93.06 285.79 93.01 290.18 93.03 294.58 C 90.74 294.43 88.46 294.32 86.17 294.27 C 86.67 290.32 87.22 286.35 86.95 282.36 C 86.60 282.11 85.90 281.61 85.56 281.36 L 85.15 281.09 Z" />
<path fill="#94979a" d=" M 85.56 281.36 C 85.90 281.61 86.60 282.11 86.95 282.36 C 87.22 286.35 86.67 290.32 86.17 294.27 C 85.38 294.28 83.79 294.32 83.00 294.33 C 83.92 290.02 84.99 285.74 85.56 281.36 Z" />
<path fill="#58585a" d=" M 93.35 281.41 C 94.86 282.23 97.24 282.76 96.96 284.99 C 96.97 288.85 96.95 292.71 97.25 296.56 C 95.84 295.90 94.43 295.24 93.03 294.58 C 93.01 290.18 93.06 285.79 93.35 281.41 Z" />
<path fill="#58595b" d=" M 221.63 295.06 C 225.26 294.03 229.07 294.18 232.80 294.38 C 233.90 296.27 234.99 298.17 236.21 300.00 L 224.03 300.00 C 223.16 298.38 222.40 296.71 221.63 295.06 Z" />
<path fill="#939699" d=" M 80.32 300.00 C 81.04 298.52 81.70 297.02 82.44 295.56 C 83.14 295.52 84.54 295.43 85.24 295.39 C 85.18 296.92 85.12 298.46 85.05 300.00 L 80.32 300.00 Z" />
<path fill="#6d6e70" d=" M 85.24 295.39 C 89.82 295.03 95.06 295.94 97.81 300.00 L 85.05 300.00 C 85.12 298.46 85.18 296.92 85.24 295.39 Z" />
</svg>
